<mxfile host="app.diagrams.net" agent="Mozilla/5.0 (Windows NT 10.0; Win64; x64; rv:132.0) Gecko/20100101 Firefox/132.0" version="24.8.3">
  <diagram name="Page-1" id="F4L2G9qzByqGNdlsCXUM">
    <mxGraphModel dx="2440" dy="1334" grid="1" gridSize="10" guides="1" tooltips="1" connect="1" arrows="1" fold="1" page="1" pageScale="1" pageWidth="850" pageHeight="1100" math="0" shadow="0">
      <root>
        <mxCell id="0" />
        <mxCell id="1" parent="0" />
        <mxCell id="Zu_E30PbdDmN5NexiMbH-42" value="XrefStep2" style="shape=cylinder3;whiteSpace=wrap;html=1;boundedLbl=1;backgroundOutline=1;size=15;" parent="1" vertex="1">
          <mxGeometry x="440" y="950" width="90" height="50" as="geometry" />
        </mxCell>
        <mxCell id="Zu_E30PbdDmN5NexiMbH-36" value="DecStep2" style="shape=cylinder3;whiteSpace=wrap;html=1;boundedLbl=1;backgroundOutline=1;size=15;" parent="1" vertex="1">
          <mxGeometry x="310" y="830" width="90" height="50" as="geometry" />
        </mxCell>
        <mxCell id="Zu_E30PbdDmN5NexiMbH-16" value="DecData4" style="shape=cylinder3;whiteSpace=wrap;html=1;boundedLbl=1;backgroundOutline=1;size=15;" parent="1" vertex="1">
          <mxGeometry x="520" y="570" width="90" height="50" as="geometry" />
        </mxCell>
        <mxCell id="Zu_E30PbdDmN5NexiMbH-14" value="DecData4" style="shape=cylinder3;whiteSpace=wrap;html=1;boundedLbl=1;backgroundOutline=1;size=15;" parent="1" vertex="1">
          <mxGeometry x="520" y="540" width="90" height="50" as="geometry" />
        </mxCell>
        <mxCell id="Zu_E30PbdDmN5NexiMbH-5" value="DecData1" style="shape=cylinder3;whiteSpace=wrap;html=1;boundedLbl=1;backgroundOutline=1;size=15;" parent="1" vertex="1">
          <mxGeometry x="437.5" y="440" width="90" height="50" as="geometry" />
        </mxCell>
        <mxCell id="Zu_E30PbdDmN5NexiMbH-3" value="Vert1" style="shape=cylinder3;whiteSpace=wrap;html=1;boundedLbl=1;backgroundOutline=1;size=15;" parent="1" vertex="1">
          <mxGeometry x="375" y="310" width="90" height="50" as="geometry" />
        </mxCell>
        <mxCell id="Zu_E30PbdDmN5NexiMbH-1" value="&lt;div&gt;Default&lt;/div&gt;&lt;div&gt;Levers&lt;/div&gt;&lt;div&gt;(Input)&lt;br&gt;&lt;/div&gt;" style="whiteSpace=wrap;html=1;aspect=fixed;" parent="1" vertex="1">
          <mxGeometry x="385" y="160" width="80" height="80" as="geometry" />
        </mxCell>
        <mxCell id="Zu_E30PbdDmN5NexiMbH-2" value="Spine" style="shape=cylinder3;whiteSpace=wrap;html=1;boundedLbl=1;backgroundOutline=1;size=15;" parent="1" vertex="1">
          <mxGeometry x="375" y="280" width="90" height="50" as="geometry" />
        </mxCell>
        <mxCell id="Zu_E30PbdDmN5NexiMbH-7" value="Utility Data" style="shape=cylinder3;whiteSpace=wrap;html=1;boundedLbl=1;backgroundOutline=1;size=15;" parent="1" vertex="1">
          <mxGeometry x="600" y="280" width="90" height="50" as="geometry" />
        </mxCell>
        <mxCell id="Zu_E30PbdDmN5NexiMbH-8" style="edgeStyle=orthogonalEdgeStyle;rounded=0;orthogonalLoop=1;jettySize=auto;html=1;exitX=0;exitY=0.5;exitDx=0;exitDy=0;exitPerimeter=0;entryX=1;entryY=0.5;entryDx=0;entryDy=0;entryPerimeter=0;" parent="1" source="Zu_E30PbdDmN5NexiMbH-7" target="Zu_E30PbdDmN5NexiMbH-2" edge="1">
          <mxGeometry relative="1" as="geometry" />
        </mxCell>
        <mxCell id="Zu_E30PbdDmN5NexiMbH-9" value="budget" style="text;html=1;align=center;verticalAlign=middle;resizable=0;points=[];autosize=1;strokeColor=none;fillColor=none;" parent="1" vertex="1">
          <mxGeometry x="470" y="330" width="60" height="30" as="geometry" />
        </mxCell>
        <mxCell id="Zu_E30PbdDmN5NexiMbH-15" value="Sales" style="text;html=1;align=center;verticalAlign=middle;resizable=0;points=[];autosize=1;strokeColor=none;fillColor=none;" parent="1" vertex="1">
          <mxGeometry x="532.5" y="450" width="50" height="30" as="geometry" />
        </mxCell>
        <mxCell id="Zu_E30PbdDmN5NexiMbH-17" value="Arrivals" style="text;html=1;align=center;verticalAlign=middle;resizable=0;points=[];autosize=1;strokeColor=none;fillColor=none;" parent="1" vertex="1">
          <mxGeometry x="610" y="580" width="60" height="30" as="geometry" />
        </mxCell>
        <mxCell id="Zu_E30PbdDmN5NexiMbH-18" value="Top Level Item WHS Detail" style="text;html=1;align=center;verticalAlign=middle;resizable=0;points=[];autosize=1;strokeColor=none;fillColor=none;" parent="1" vertex="1">
          <mxGeometry x="690" y="290" width="170" height="30" as="geometry" />
        </mxCell>
        <mxCell id="Zu_E30PbdDmN5NexiMbH-21" value="Base Data" style="shape=cylinder3;whiteSpace=wrap;html=1;boundedLbl=1;backgroundOutline=1;size=15;" parent="1" vertex="1">
          <mxGeometry x="375" y="555" width="90" height="50" as="geometry" />
        </mxCell>
        <mxCell id="Zu_E30PbdDmN5NexiMbH-22" style="edgeStyle=orthogonalEdgeStyle;rounded=0;orthogonalLoop=1;jettySize=auto;html=1;exitX=0.5;exitY=1;exitDx=0;exitDy=0;exitPerimeter=0;entryX=0.5;entryY=0;entryDx=0;entryDy=0;entryPerimeter=0;" parent="1" source="Zu_E30PbdDmN5NexiMbH-3" target="Zu_E30PbdDmN5NexiMbH-21" edge="1">
          <mxGeometry relative="1" as="geometry" />
        </mxCell>
        <mxCell id="Zu_E30PbdDmN5NexiMbH-24" value="" style="endArrow=none;html=1;rounded=0;entryX=0;entryY=0.5;entryDx=0;entryDy=0;entryPerimeter=0;" parent="1" edge="1">
          <mxGeometry width="50" height="50" relative="1" as="geometry">
            <mxPoint x="417.5" y="464.86" as="sourcePoint" />
            <mxPoint x="437.5" y="464.86" as="targetPoint" />
          </mxGeometry>
        </mxCell>
        <mxCell id="Zu_E30PbdDmN5NexiMbH-26" value="" style="endArrow=none;html=1;rounded=0;entryX=0;entryY=0.5;entryDx=0;entryDy=0;entryPerimeter=0;exitX=1;exitY=0;exitDx=0;exitDy=20;exitPerimeter=0;" parent="1" edge="1" source="Zu_E30PbdDmN5NexiMbH-21">
          <mxGeometry width="50" height="50" relative="1" as="geometry">
            <mxPoint x="470" y="545" as="sourcePoint" />
            <mxPoint x="520" y="564.86" as="targetPoint" />
          </mxGeometry>
        </mxCell>
        <mxCell id="Zu_E30PbdDmN5NexiMbH-27" value="" style="endArrow=none;html=1;rounded=0;entryX=0;entryY=0.5;entryDx=0;entryDy=0;entryPerimeter=0;exitX=1;exitY=0;exitDx=0;exitDy=30;exitPerimeter=0;" parent="1" edge="1" source="Zu_E30PbdDmN5NexiMbH-21">
          <mxGeometry width="50" height="50" relative="1" as="geometry">
            <mxPoint x="500" y="594.86" as="sourcePoint" />
            <mxPoint x="520" y="594.86" as="targetPoint" />
          </mxGeometry>
        </mxCell>
        <mxCell id="Zu_E30PbdDmN5NexiMbH-28" value="" style="endArrow=none;html=1;rounded=0;" parent="1" edge="1">
          <mxGeometry width="50" height="50" relative="1" as="geometry">
            <mxPoint x="310" y="490" as="sourcePoint" />
            <mxPoint x="420" y="490" as="targetPoint" />
          </mxGeometry>
        </mxCell>
        <mxCell id="Zu_E30PbdDmN5NexiMbH-29" value="sparkstack1" style="text;html=1;align=center;verticalAlign=middle;resizable=0;points=[];autosize=1;strokeColor=none;fillColor=none;" parent="1" vertex="1">
          <mxGeometry x="300" y="460" width="90" height="30" as="geometry" />
        </mxCell>
        <mxCell id="Zu_E30PbdDmN5NexiMbH-30" value="work table" style="text;html=1;align=center;verticalAlign=middle;resizable=0;points=[];autosize=1;strokeColor=none;fillColor=none;" parent="1" vertex="1">
          <mxGeometry x="380" y="555" width="80" height="30" as="geometry" />
        </mxCell>
        <mxCell id="Zu_E30PbdDmN5NexiMbH-31" value="Recent Detail" style="shape=cylinder3;whiteSpace=wrap;html=1;boundedLbl=1;backgroundOutline=1;size=15;" parent="1" vertex="1">
          <mxGeometry x="375" y="700" width="90" height="50" as="geometry" />
        </mxCell>
        <mxCell id="Zu_E30PbdDmN5NexiMbH-32" style="edgeStyle=orthogonalEdgeStyle;rounded=0;orthogonalLoop=1;jettySize=auto;html=1;exitX=0.5;exitY=1;exitDx=0;exitDy=0;exitPerimeter=0;entryX=0.5;entryY=0;entryDx=0;entryDy=0;entryPerimeter=0;" parent="1" source="Zu_E30PbdDmN5NexiMbH-21" target="Zu_E30PbdDmN5NexiMbH-31" edge="1">
          <mxGeometry relative="1" as="geometry" />
        </mxCell>
        <mxCell id="Zu_E30PbdDmN5NexiMbH-33" value="work table" style="text;html=1;align=center;verticalAlign=middle;resizable=0;points=[];autosize=1;strokeColor=none;fillColor=none;" parent="1" vertex="1">
          <mxGeometry x="380" y="700" width="80" height="30" as="geometry" />
        </mxCell>
        <mxCell id="Zu_E30PbdDmN5NexiMbH-34" value="DecStep1" style="shape=cylinder3;whiteSpace=wrap;html=1;boundedLbl=1;backgroundOutline=1;size=15;" parent="1" vertex="1">
          <mxGeometry x="310" y="800" width="90" height="50" as="geometry" />
        </mxCell>
        <mxCell id="Zu_E30PbdDmN5NexiMbH-35" value="Default Levers" style="text;html=1;align=center;verticalAlign=middle;resizable=0;points=[];autosize=1;strokeColor=none;fillColor=none;" parent="1" vertex="1">
          <mxGeometry x="200" y="810" width="100" height="30" as="geometry" />
        </mxCell>
        <mxCell id="Zu_E30PbdDmN5NexiMbH-37" value="Spec Utility" style="shape=cylinder3;whiteSpace=wrap;html=1;boundedLbl=1;backgroundOutline=1;size=15;" parent="1" vertex="1">
          <mxGeometry x="150" y="700" width="90" height="50" as="geometry" />
        </mxCell>
        <mxCell id="Zu_E30PbdDmN5NexiMbH-38" value="Spec Overwrites" style="text;html=1;align=center;verticalAlign=middle;resizable=0;points=[];autosize=1;strokeColor=none;fillColor=none;" parent="1" vertex="1">
          <mxGeometry x="195" y="845" width="110" height="30" as="geometry" />
        </mxCell>
        <mxCell id="Zu_E30PbdDmN5NexiMbH-41" value="XrefStep1" style="shape=cylinder3;whiteSpace=wrap;html=1;boundedLbl=1;backgroundOutline=1;size=15;" parent="1" vertex="1">
          <mxGeometry x="440" y="920" width="90" height="50" as="geometry" />
        </mxCell>
        <mxCell id="Zu_E30PbdDmN5NexiMbH-43" value="Legacy-New Relation" style="text;html=1;align=center;verticalAlign=middle;resizable=0;points=[];autosize=1;strokeColor=none;fillColor=none;" parent="1" vertex="1">
          <mxGeometry x="535" y="930" width="140" height="30" as="geometry" />
        </mxCell>
        <mxCell id="Zu_E30PbdDmN5NexiMbH-44" value="Standardize Errors" style="text;html=1;align=center;verticalAlign=middle;resizable=0;points=[];autosize=1;strokeColor=none;fillColor=none;" parent="1" vertex="1">
          <mxGeometry x="540" y="960" width="120" height="30" as="geometry" />
        </mxCell>
        <mxCell id="Zu_E30PbdDmN5NexiMbH-65" style="edgeStyle=orthogonalEdgeStyle;rounded=0;orthogonalLoop=1;jettySize=auto;html=1;exitX=0.5;exitY=1;exitDx=0;exitDy=0;exitPerimeter=0;" parent="1" source="Zu_E30PbdDmN5NexiMbH-45" target="Zu_E30PbdDmN5NexiMbH-64" edge="1">
          <mxGeometry relative="1" as="geometry" />
        </mxCell>
        <mxCell id="Zu_E30PbdDmN5NexiMbH-45" value="DecHist" style="shape=cylinder3;whiteSpace=wrap;html=1;boundedLbl=1;backgroundOutline=1;size=15;" parent="1" vertex="1">
          <mxGeometry x="375" y="1080" width="90" height="50" as="geometry" />
        </mxCell>
        <mxCell id="Zu_E30PbdDmN5NexiMbH-46" value="work table" style="text;html=1;align=center;verticalAlign=middle;resizable=0;points=[];autosize=1;strokeColor=none;fillColor=none;" parent="1" vertex="1">
          <mxGeometry x="380" y="1080" width="80" height="30" as="geometry" />
        </mxCell>
        <mxCell id="Zu_E30PbdDmN5NexiMbH-48" style="edgeStyle=orthogonalEdgeStyle;rounded=0;orthogonalLoop=1;jettySize=auto;html=1;exitX=0.5;exitY=1;exitDx=0;exitDy=0;exitPerimeter=0;entryX=0.5;entryY=0;entryDx=0;entryDy=0;entryPerimeter=0;" parent="1" source="Zu_E30PbdDmN5NexiMbH-31" target="Zu_E30PbdDmN5NexiMbH-45" edge="1">
          <mxGeometry relative="1" as="geometry" />
        </mxCell>
        <mxCell id="Zu_E30PbdDmN5NexiMbH-49" value="" style="endArrow=none;html=1;rounded=0;" parent="1" edge="1">
          <mxGeometry width="50" height="50" relative="1" as="geometry">
            <mxPoint x="420" y="854.31" as="sourcePoint" />
            <mxPoint x="530" y="854.31" as="targetPoint" />
          </mxGeometry>
        </mxCell>
        <mxCell id="Zu_E30PbdDmN5NexiMbH-50" value="sparkstack2" style="text;html=1;align=center;verticalAlign=middle;resizable=0;points=[];autosize=1;strokeColor=none;fillColor=none;" parent="1" vertex="1">
          <mxGeometry x="445" y="824.31" width="90" height="30" as="geometry" />
        </mxCell>
        <mxCell id="Zu_E30PbdDmN5NexiMbH-51" value="" style="endArrow=none;html=1;rounded=0;" parent="1" edge="1">
          <mxGeometry width="50" height="50" relative="1" as="geometry">
            <mxPoint x="400" y="830" as="sourcePoint" />
            <mxPoint x="420" y="830" as="targetPoint" />
          </mxGeometry>
        </mxCell>
        <mxCell id="Zu_E30PbdDmN5NexiMbH-52" value="" style="endArrow=none;html=1;rounded=0;" parent="1" edge="1">
          <mxGeometry width="50" height="50" relative="1" as="geometry">
            <mxPoint x="400" y="854.89" as="sourcePoint" />
            <mxPoint x="420" y="854.89" as="targetPoint" />
          </mxGeometry>
        </mxCell>
        <mxCell id="Zu_E30PbdDmN5NexiMbH-54" value="" style="endArrow=none;html=1;rounded=0;" parent="1" edge="1">
          <mxGeometry width="50" height="50" relative="1" as="geometry">
            <mxPoint x="420" y="944.89" as="sourcePoint" />
            <mxPoint x="440" y="944.89" as="targetPoint" />
          </mxGeometry>
        </mxCell>
        <mxCell id="Zu_E30PbdDmN5NexiMbH-55" value="" style="endArrow=none;html=1;rounded=0;" parent="1" edge="1">
          <mxGeometry width="50" height="50" relative="1" as="geometry">
            <mxPoint x="420" y="974.89" as="sourcePoint" />
            <mxPoint x="440" y="974.89" as="targetPoint" />
          </mxGeometry>
        </mxCell>
        <mxCell id="Zu_E30PbdDmN5NexiMbH-57" style="edgeStyle=orthogonalEdgeStyle;rounded=0;orthogonalLoop=1;jettySize=auto;html=1;exitX=1;exitY=0.5;exitDx=0;exitDy=0;exitPerimeter=0;entryX=0;entryY=0.5;entryDx=0;entryDy=0;entryPerimeter=0;" parent="1" source="Zu_E30PbdDmN5NexiMbH-37" target="Zu_E30PbdDmN5NexiMbH-31" edge="1">
          <mxGeometry relative="1" as="geometry" />
        </mxCell>
        <mxCell id="Zu_E30PbdDmN5NexiMbH-58" style="edgeStyle=orthogonalEdgeStyle;rounded=0;orthogonalLoop=1;jettySize=auto;html=1;exitX=0.5;exitY=1;exitDx=0;exitDy=0;exitPerimeter=0;entryX=0;entryY=0;entryDx=0;entryDy=30;entryPerimeter=0;" parent="1" source="Zu_E30PbdDmN5NexiMbH-37" target="Zu_E30PbdDmN5NexiMbH-36" edge="1">
          <mxGeometry relative="1" as="geometry" />
        </mxCell>
        <mxCell id="Zu_E30PbdDmN5NexiMbH-61" value="DeltaStep" style="shape=cylinder3;whiteSpace=wrap;html=1;boundedLbl=1;backgroundOutline=1;size=15;" parent="1" vertex="1">
          <mxGeometry x="310" y="1000" width="90" height="50" as="geometry" />
        </mxCell>
        <mxCell id="Zu_E30PbdDmN5NexiMbH-62" value="" style="endArrow=none;html=1;rounded=0;" parent="1" edge="1">
          <mxGeometry width="50" height="50" relative="1" as="geometry">
            <mxPoint x="400" y="1030" as="sourcePoint" />
            <mxPoint x="420" y="1030" as="targetPoint" />
          </mxGeometry>
        </mxCell>
        <mxCell id="Zu_E30PbdDmN5NexiMbH-63" value="Dropsite" style="shape=cylinder3;whiteSpace=wrap;html=1;boundedLbl=1;backgroundOutline=1;size=15;" parent="1" vertex="1">
          <mxGeometry x="375" y="1170" width="90" height="50" as="geometry" />
        </mxCell>
        <mxCell id="Zu_E30PbdDmN5NexiMbH-64" value="work table" style="text;html=1;align=center;verticalAlign=middle;resizable=0;points=[];autosize=1;strokeColor=none;fillColor=none;" parent="1" vertex="1">
          <mxGeometry x="380" y="1170" width="80" height="30" as="geometry" />
        </mxCell>
        <mxCell id="Zu_E30PbdDmN5NexiMbH-66" value="work table" style="text;html=1;align=center;verticalAlign=middle;resizable=0;points=[];autosize=1;strokeColor=none;fillColor=none;" parent="1" vertex="1">
          <mxGeometry x="155" y="700" width="80" height="30" as="geometry" />
        </mxCell>
        <mxCell id="Zu_E30PbdDmN5NexiMbH-67" value="work table" style="text;html=1;align=center;verticalAlign=middle;resizable=0;points=[];autosize=1;strokeColor=none;fillColor=none;" parent="1" vertex="1">
          <mxGeometry x="605" y="280" width="80" height="30" as="geometry" />
        </mxCell>
        <mxCell id="Zu_E30PbdDmN5NexiMbH-68" style="edgeStyle=orthogonalEdgeStyle;rounded=0;orthogonalLoop=1;jettySize=auto;html=1;exitX=0;exitY=0.5;exitDx=0;exitDy=0;entryX=0;entryY=0;entryDx=0;entryDy=30;entryPerimeter=0;" parent="1" source="Zu_E30PbdDmN5NexiMbH-1" target="Zu_E30PbdDmN5NexiMbH-34" edge="1">
          <mxGeometry relative="1" as="geometry">
            <Array as="points">
              <mxPoint x="260" y="200" />
              <mxPoint x="260" y="830" />
            </Array>
          </mxGeometry>
        </mxCell>
        <mxCell id="GA3h_aDA2ko0ekY_Z46T-1" value="&lt;div&gt;OH&lt;/div&gt;" style="text;html=1;align=center;verticalAlign=middle;resizable=0;points=[];autosize=1;strokeColor=none;fillColor=none;" vertex="1" parent="1">
          <mxGeometry x="620" y="550" width="40" height="30" as="geometry" />
        </mxCell>
      </root>
    </mxGraphModel>
  </diagram>
</mxfile>
